<svg viewBox="0 0 1400 900" xmlns="http://www.w3.org/2000/svg">
  <!-- Background -->
  <rect width="1400" height="900" fill="#0d1117"/>
  
  <!-- GitHub PR Header -->
  <rect x="20" y="20" width="1360" height="60" fill="#161b22" rx="6"/>
  <text x="40" y="55" fill="#c9d1d9" font-size="24" font-weight="600">Pull Request #847</text>
  <text x="350" y="55" fill="#8b949e" font-size="18">feat/NT-1234-user-authentication</text>
  
  <!-- Code Quality Widget -->
  <rect x="20" y="100" width="1360" height="180" fill="#161b22" rx="6"/>
  <text x="40" y="135" fill="#58a6ff" font-size="20" font-weight="600">🤖 AI Auto-Assessor</text>
  
  <!-- Quality Score Circle -->
  <circle cx="120" cy="190" r="50" fill="none" stroke="#238636" stroke-width="8"/>
  <circle cx="120" cy="190" r="50" fill="none" stroke="#238636" stroke-width="8" stroke-dasharray="283 314" transform="rotate(-90 120 190)"/>
  <text x="120" y="200" fill="#238636" font-size="32" font-weight="700" text-anchor="middle">92</text>
  <text x="120" y="220" fill="#8b949e" font-size="12" text-anchor="middle">SCORE</text>
  
  <!-- Status Items -->
  <g transform="translate(220, 130)">
    <!-- Green Check -->
    <circle cx="15" cy="15" r="12" fill="#238636"/>
    <path d="M10 15 L13 18 L20 11" stroke="white" stroke-width="2" fill="none"/>
    <text x="35" y="20" fill="#c9d1d9" font-size="14">Branch naming convention</text>
    <text x="280" y="20" fill="#8b949e" font-size="12">Automated Pass</text>
    
    <!-- Green Check -->
    <circle cx="15" cy="50" r="12" fill="#238636"/>
    <path d="M10 50 L13 53 L20 46" stroke="white" stroke-width="2" fill="none"/>
    <text x="35" y="55" fill="#c9d1d9" font-size="14">No console.log detected</text>
    <text x="280" y="55" fill="#8b949e" font-size="12">Automated Pass</text>
    
    <!-- Yellow Flag -->
    <circle cx="15" cy="85" r="12" fill="#d29922"/>
    <text x="15" y="92" fill="#0d1117" font-size="16" font-weight="700" text-anchor="middle">!</text>
    <text x="35" y="90" fill="#c9d1d9" font-size="14">Component complexity high</text>
    <text x="280" y="90" fill="#d29922" font-size="12">Refactor Suggested</text>
    
    <!-- Blue Manual -->
    <circle cx="15" cy="120" r="12" fill="#58a6ff"/>
    <text x="15" y="127" fill="#0d1117" font-size="14" font-weight="700" text-anchor="middle">👤</text>
    <text x="35" y="125" fill="#c9d1d9" font-size="14">Code review required</text>
    <text x="280" y="125" fill="#58a6ff" font-size="12">Manual Check</text>
  </g>
  
  <!-- Files Changed Section -->
  <rect x="20" y="300" width="1360" height="560" fill="#161b22" rx="6"/>
  <text x="40" y="335" fill="#c9d1d9" font-size="18" font-weight="600">Files Changed (8)</text>
  
  <!-- File List -->
  <g transform="translate(40, 360)">
    <rect width="1300" height="40" fill="#0d1117" rx="4"/>
    <text x="15" y="25" fill="#58a6ff" font-size="14">src/components/UserAuth.tsx</text>
    <circle cx="1250" cy="20" r="8" fill="#238636"/>
    
    <rect y="50" width="1300" height="40" fill="#0d1117" rx="4"/>
    <text x="15" y="75" fill="#58a6ff" font-size="14">src/services/api/auth.ts</text>
    <circle cx="1250" cy="70" r="8" fill="#d29922"/>
    
    <rect y="100" width="1300" height="40" fill="#0d1117" rx="4"/>
    <text x="15" y="125" fill="#58a6ff" font-size="14">src/hooks/useAuth.ts</text>
    <circle cx="1250" cy="120" r="8" fill="#238636"/>
  </g>
  
  <!-- Suggestions Panel -->
  <rect x="40" y="530" width="1300" height="310" fill="#1c2128" rx="4"/>
  <text x="60" y="565" fill="#d29922" font-size="16" font-weight="600">💡 AI Refactor Suggestion</text>
  <text x="60" y="595" fill="#8b949e" font-size="13">File: src/components/UserAuth.tsx</text>
  
  <text x="60" y="630" fill="#c9d1d9" font-size="14">The validateUserInput function has high cyclomatic complexity (12).</text>
  <text x="60" y="655" fill="#c9d1d9" font-size="14">Consider breaking it into smaller functions:</text>
  
  <rect x="60" y="670" width="1220" height="150" fill="#0d1117" rx="4"/>
  <text x="80" y="695" fill="#8b949e" font-family="monospace" font-size="12">// Before: One large function</text>
  <text x="80" y="715" fill="#ff7b72" font-family="monospace" font-size="12">- function validateUserInput(data) { ... } // 45 lines</text>
  
  <text x="80" y="745" fill="#8b949e" font-family="monospace" font-size="12">// After: Split into focused functions</text>
  <text x="80" y="765" fill="#7ee787" font-family="monospace" font-size="12">+ function validateEmail(email) { ... }</text>
  <text x="80" y="785" fill="#7ee787" font-family="monospace" font-size="12">+ function validatePassword(password) { ... }</text>
  <text x="80" y="805" fill="#7ee787" font-family="monospace" font-size="12">+ function validateUserInput(data) { ... } // 8 lines</text>
</g>
</svg>