<svg viewBox="0 0 1400 900" xmlns="http://www.w3.org/2000/svg">
  <!-- Background -->
  <rect width="1400" height="900" fill="#0d1117"/>
  
  <!-- Header -->
  <rect x="20" y="20" width="1360" height="80" fill="#161b22" rx="6"/>
  <text x="40" y="60" fill="#c9d1d9" font-size="26" font-weight="700">📊 Architectural Debt Map</text>
  <text x="40" y="85" fill="#8b949e" font-size="15">Visual representation of technical debt across your codebase</text>
  
  <!-- Legend -->
  <rect x="900" y="35" width="460" height="55" fill="#1c2128" rx="4"/>
  <text x="920" y="58" fill="#8b949e" font-size="13">Debt Level:</text>
  <rect x="1010" y="45" width="60" height="20" fill="#238636" rx="2"/>
  <text x="1080" y="60" fill="#c9d1d9" font-size="12">Low</text>
  <rect x="1130" y="45" width="60" height="20" fill="#d29922" rx="2"/>
  <text x="1200" y="60" fill="#c9d1d9" font-size="12">Medium</text>
  <rect x="1250" y="45" width="60" height="20" fill="#f85149" rx="2"/>
  <text x="1320" y="60" fill="#c9d1d9" font-size="12">High</text>
  
  <!-- Stats Panel -->
  <rect x="20" y="120" width="340" height="760" fill="#161b22" rx="6"/>
  <text x="40" y="155" fill="#c9d1d9" font-size="18" font-weight="600">Project Statistics</text>
  
  <!-- Total Debt -->
  <rect x="40" y="170" width="300" height="80" fill="#1c2128" rx="4"/>
  <text x="60" y="195" fill="#8b949e" font-size="13">Total Technical Debt</text>
  <text x="60" y="230" fill="#f85149" font-size="32" font-weight="700">247</text>
  <text x="140" y="230" fill="#8b949e" font-size="16">violations</text>
  
  <!-- Breakdown by Category -->
  <text x="40" y="280" fill="#c9d1d9" font-size="16" font-weight="600">Debt by Category</text>
  
  <rect x="40" y="295" width="300" height="60" fill="#1c2128" rx="4"/>
  <text x="60" y="320" fill="#c9d1d9" font-size="14">Performance</text>
  <text x="280" y="320" fill="#f85149" font-size="16" font-weight="600" text-anchor="end">89</text>
  <rect x="60" y="330" width="260" height="6" fill="#21262d" rx="3"/>
  <rect x="60" y="330" width="200" height="6" fill="#f85149" rx="3"/>
  
  <rect x="40" y="365" width="300" height="60" fill="#1c2128" rx="4"/>
  <text x="60" y="390" fill="#c9d1d9" font-size="14">Code Quality</text>
  <text x="280" y="390" fill="#d29922" font-size="16" font-weight="600" text-anchor="end">72</text>
  <rect x="60" y="400" width="260" height="6" fill="#21262d" rx="3"/>
  <rect x="60" y="400" width="160" height="6" fill="#d29922" rx="3"/>
  
  <rect x="40" y="435" width="300" height="60" fill="#1c2128" rx="4"/>
  <text x="60" y="460" fill="#c9d1d9" font-size="14">Stability</text>
  <text x="280" y="460" fill="#d29922" font-size="16" font-weight="600" text-anchor="end">54</text>
  <rect x="60" y="470" width="260" height="6" fill="#21262d" rx="3"/>
  <rect x="60" y="470" width="120" height="6" fill="#d29922" rx="3"/>
  
  <rect x="40" y="505" width="300" height="60" fill="#1c2128" rx="4"/>
  <text x="60" y="530" fill="#c9d1d9" font-size="14">Testing</text>
  <text x="280" y="530" fill="#238636" font-size="16" font-weight="600" text-anchor="end">32</text>
  <rect x="60" y="540" width="260" height="6" fill="#21262d" rx="3"/>
  <rect x="60" y="540" width="70" height="6" fill="#238636" rx="3"/>
  
  <!-- Trends -->
  <text x="40" y="600" fill="#c9d1d9" font-size="16" font-weight="600">Debt Trends</text>
  <rect x="40" y="615" width="300" height="250" fill="#1c2128" rx="4"/>
  
  <!-- Simple Line Chart -->
  <g transform="translate(60, 640)">
    <text x="0" y="0" fill="#8b949e" font-size="11">300</text>
    <text x="0" y="60" fill="#8b949e" font-size="11">200</text>
    <text x="0" y="120" fill="#8b949e" font-size="11">100</text>
    <text x="0" y="180" fill="#8b949e" font-size="11">0</text>
    
    <line x1="30" y1="0" x2="30" y2="180" stroke="#484f58" stroke-width="1"/>
    <line x1="30" y1="180" x2="260" y2="180" stroke="#484f58" stroke-width="1"/>
    
    <polyline points="30,80 80,100 130,120 180,90 230,60" 
              fill="none" stroke="#f85149" stroke-width="2"/>
    <circle cx="230" cy="60" r="4" fill="#f85149"/>
    
    <text x="30" y="200" fill="#8b949e" font-size="10">Jan</text>
    <text x="80" y="200" fill="#8b949e" font-size="10">Feb</text>
    <text x="130" y="200" fill="#8b949e" font-size="10">Mar</text>
    <text x="180" y="200" fill="#8b949e" font-size="10">Apr</text>
    <text x="230" y="200" fill="#8b949e" font-size="10">May</text>
  </g>
  
  <!-- Tree Map -->
  <rect x="380" y="120" width="1000" height="760" fill="#161b22" rx="6"/>
  <text x="400" y="155" fill="#c9d1d9" font-size="18" font-weight="600">Codebase Tree Map</text>
  <text x="400" y="177" fill="#8b949e" font-size="13">Size = File Count | Color = Debt Level | Click for details</text>
  
  <!-- Tree Map Grid -->
  <g transform="translate(400, 190)">
    <!-- Row 1 - src/components (High Debt) -->
    <rect width="600" height="250" fill="#f85149" opacity="0.3" stroke="#f85149" stroke-width="2" rx="4"/>
    <text x="10" y="25" fill="#f85149" font-size="16" font-weight="600">src/components</text>
    <text x="10" y="45" fill="#c9d1d9" font-size="13">156 files | 89 violations</text>
    <text x="10" y="75" fill="#c9d1d9" font-size="12">• perf-2: Avoided unnecessary re-renders (34)</text>
    <text x="10" y="95" fill="#c9d1d9" font-size="12">• code-1: Components are small and focused (28)</text>
    <text x="10" y="115" fill="#c9d1d9" font-size="12">• perf-3: Implemented lazy loading (15)</text>
    <text x="10" y="135" fill="#c9d1d9" font-size="12">• code-4: Avoided prop drilling (12)</text>
    
    <text x="580" y="235" fill="#f85149" font-size="48" font-weight="700" text-anchor="end">⚠️</text>
    
    <!-- src/services (Medium Debt) -->
    <rect x="620" width="340" height="250" fill="#d29922" opacity="0.3" stroke="#d29922" stroke-width="2" rx="4"/>
    <text x="630" y="25" fill="#d29922" font-size="16" font-weight="600">src/services</text>
    <text x="630" y="45" fill="#c9d1d9" font-size="13">87 files | 54 violations</text>
    <text x="630" y="75" fill="#c9d1d9" font-size="12">• api-3: Error handling (21)</text>
    <text x="630" y="95" fill="#c9d1d9" font-size="12">• stab-2: Graceful failures (18)</text>
    <text x="630" y="115" fill="#c9d1d9" font-size="12">• api-4: Loading states (15)</text>
    
    <text x="940" y="235" fill="#d29922" font-size="48" font-weight="700" text-anchor="end">!</text>
    
    <!-- Row 2 -->
    <!-- src/hooks (Low Debt) -->
    <rect y="270" width="280" height="200" fill="#238636" opacity="0.3" stroke="#238636" stroke-width="2" rx="4"/>
    <text x="10" y="295" fill="#238636" font-size="16" font-weight="600">src/hooks</text>
    <text x="10" y="315" fill="#c9d1d9" font-size="13">43 files | 12 violations</text>
    <text x="10" y="345" fill="#c9d1d9" font-size="12">• code-5: Custom hooks (8)</text>
    <text x="10" y="365" fill="#c9d1d9" font-size="12">• perf-1: Memoization (4)</text>
    
    <text x="260" y="455" fill="#238636" font-size="36" font-weight="700" text-anchor="end">✓</text>
    
    <!-- src/utils (Low Debt) -->
    <rect x="300" y="270" width="300" height="200" fill="#238636" opacity="0.3" stroke="#238636" stroke-width="2" rx="4"/>
    <text x="310" y="295" fill="#238636" font-size="16" font-weight="600">src/utils</text>
    <text x="310" y="315" fill="#c9d1d9" font-size="13">52 files | 20 violations</text>
    <text x="310" y="345" fill="#c9d1d9" font-size="12">• code-2: Pure functions (15)</text>
    <text x="310" y="365" fill="#c9d1d9" font-size="12">• test-1: Unit tests (5)</text>
    
    <text x="580" y="455" fill="#238636" font-size="36" font-weight="700" text-anchor="end">✓</text>
    
    <!-- src/pages (Medium Debt) -->
    <rect x="620" y="270" width="340" height="200" fill="#d29922" opacity="0.3" stroke="#d29922" stroke-width="2" rx="4"/>
    <text x="630" y="295" fill="#d29922" font-size="16" font-weight="600">src/pages</text>
    <text x="630" y="315" fill="#c9d1d9" font-size="13">68 files | 48 violations</text>
    <text x="630" y="345" fill="#c9d1d9" font-size="12">• perf-3: Code splitting (22)</text>
    <text x="630" y="365" fill="#c9d1d9" font-size="12">• stab-4: Error boundaries (16)</text>
    <text x="630" y="385" fill="#c9d1d9" font-size="12">• sec-2: Auth guards (10)</text>
    
    <text x="940" y="455" fill="#d29922" font-size="36" font-weight="700" text-anchor="end">!</text>
    
    <!-- Row 3 -->
    <!-- src/styles (Low Debt) -->
    <rect y="490" width="460" height="170" fill="#238636" opacity="0.3" stroke="#238636" stroke-width="2" rx="4"/>
    <text x="10" y="515" fill="#238636" font-size="16" font-weight="600">src/styles</text>
    <text x="10" y="535" fill="#c9d1d9" font-size="13">34 files | 8 violations</text>
    <text x="10" y="565" fill="#c9d1d9" font-size="12">• code-3: Consistent naming (8)</text>
    
    <text x="440" y="645" fill="#238636" font-size="36" font-weight="700" text-anchor="end">✓</text>
    
    <!-- src/tests (High Priority) -->
    <rect x="480" y="490" width="480" height="170" fill="#f85149" opacity="0.3" stroke="#f85149" stroke-width="2" rx="4"/>
    <text x="490" y="515" fill="#f85149" font-size="16" font-weight="600">src/tests</text>
    <text x="490" y="535" fill="#c9d1d9" font-size="13">29 files | 24 violations</text>
    <text x="490" y="565" fill="#c9d1d9" font-size="12">• test-2: AAA pattern not followed (16)</text>
    <text x="490" y="585" fill="#c9d1d9" font-size="12">• test-3: Edge cases missing (8)</text>
    
    <text x="940" y="645" fill="#f85149" font-size="36" font-weight="700" text-anchor="end">⚠️</text>
  </g>
</svg>