<svg viewBox="0 0 1400 900" xmlns="http://www.w3.org/2000/svg">
  <!-- Background -->
  <rect width="1400" height="900" fill="#0d1117"/>
  
  <!-- Header -->
  <rect x="20" y="20" width="1360" height="70" fill="#161b22" rx="6"/>
  <text x="40" y="60" fill="#c9d1d9" font-size="24" font-weight="700">🔥 Project Quality Heatmap</text>
  <text x="40" y="85" fill="#8b949e" font-size="14">One glance shows where the project needs attention</text>
  
  <!-- Legend -->
  <rect x="1050" y="30" width="310" height="50" fill="#1c2128" rx="4"/>
  <text x="1070" y="52" fill="#8b949e" font-size="12">Status:</text>
  
  <rect x="1130" y="40" width="50" height="20" fill="#238636" rx="2"/>
  <text x="1190" y="55" fill="#c9d1d9" font-size="11">Done</text>
  
  <rect x="1230" y="40" width="50" height="20" fill="#d29922" rx="2"/>
  <text x="1290" y="55" fill="#c9d1d9" font-size="11">Partial</text>
  
  <rect x="1070" y="65" width="50" height="20" fill="#f85149" rx="2"/>
  <text x="1130" y="80" fill="#c9d1d9" font-size="11">Critical</text>
  
  <rect x="1170" y="65" width="50" height="20" fill="#484f58" rx="2"/>
  <text x="1230" y="80" fill="#c9d1d9" font-size="11">Todo</text>
  
  <!-- Matrix Container -->
  <rect x="20" y="110" width="1360" height="770" fill="#161b22" rx="6"/>
  
  <!-- Column Headers -->
  <g transform="translate(200, 130)">
    <text x="100" y="20" fill="#c9d1d9" font-size="13" font-weight="600" text-anchor="middle">Branch</text>
    <text x="280" y="20" fill="#c9d1d9" font-size="13" font-weight="600" text-anchor="middle">API</text>
    <text x="460" y="20" fill="#c9d1d9" font-size="13" font-weight="600" text-anchor="middle">Code Quality</text>
    <text x="640" y="20" fill="#c9d1d9" font-size="13" font-weight="600" text-anchor="middle">Performance</text>
    <text x="820" y="20" fill="#c9d1d9" font-size="13" font-weight="600" text-anchor="middle">Testing</text>
    <text x="1000" y="20" fill="#c9d1d9" font-size="13" font-weight="600" text-anchor="middle">Stability</text>
    <text x="1180" y="20" fill="#c9d1d9" font-size="13" font-weight="600" text-anchor="middle">Review</text>
  </g>
  
  <!-- Row 1: Branch Naming -->
  <g transform="translate(40, 170)">
    <text x="0" y="50" fill="#c9d1d9" font-size="13" font-weight="600">Format Match</text>
    
    <rect x="160" y="30" width="140" height="40" fill="#238636" rx="4" class="cell"/>
    <text x="230" y="55" fill="white" font-size="16" font-weight="600" text-anchor="middle">100%</text>
    
    <rect x="340" y="30" width="140" height="40" fill="#484f58" rx="4" class="cell"/>
    <text x="410" y="55" fill="#8b949e" font-size="16" font-weight="600" text-anchor="middle">—</text>
    
    <rect x="520" y="30" width="140" height="40" fill="#484f58" rx="4" class="cell"/>
    <text x="590" y="55" fill="#8b949e" font-size="16" font-weight="600" text-anchor="middle">—</text>
    
    <rect x="700" y="30" width="140" height="40" fill="#484f58" rx="4" class="cell"/>
    <text x="770" y="55" fill="#8b949e" font-size="16" font-weight="600" text-anchor="middle">—</text>
    
    <rect x="880" y="30" width="140" height="40" fill="#484f58" rx="4" class="cell"/>
    <text x="950" y="55" fill="#8b949e" font-size="16" font-weight="600" text-anchor="middle">—</text>
    
    <rect x="1060" y="30" width="140" height="40" fill="#484f58" rx="4" class="cell"/>
    <text x="1130" y="55" fill="#8b949e" font-size="16" font-weight="600" text-anchor="middle">—</text>
    
    <rect x="1240" y="30" width="140" height="40" fill="#484f58" rx="4" class="cell"/>
    <text x="1310" y="55" fill="#8b949e" font-size="16" font-weight="600" text-anchor="middle">—</text>
  </g>
  
  <!-- Row 2: No Spaces -->
  <g transform="translate(40, 230)">
    <text x="0" y="50" fill="#c9d1d9" font-size="13" font-weight="600">No Spaces</text>
    
    <rect x="160" y="30" width="140" height="40" fill="#238636" rx="4" class="cell"/>
    <text x="230" y="55" fill="white" font-size="16" font-weight="600" text-anchor="middle">100%</text>
    
    <rect x="340" y="30" width="140" height="40" fill="#484f58" rx="4" class="cell"/>
    <rect x="520" y="30" width="140" height="40" fill="#484f58" rx="4" class="cell"/>
    <rect x="700" y="30" width="140" height="40" fill="#484f58" rx="4" class="cell"/>
    <rect x="880" y="30" width="140" height="40" fill="#484f58" rx="4" class="cell"/>
    <rect x="1060" y="30" width="140" height="40" fill="#484f58" rx="4" class="cell"/>
    <rect x="1240" y="30" width="140" height="40" fill="#484f58" rx="4" class="cell"/>
  </g>
  
  <!-- Row 3: Contracts -->
  <g transform="translate(40, 290)">
    <text x="0" y="50" fill="#c9d1d9" font-size="13" font-weight="600">API Contracts</text>
    
    <rect x="160" y="30" width="140" height="40" fill="#484f58" rx="4" class="cell"/>
    
    <rect x="340" y="30" width="140" height="40" fill="#238636" rx="4" class="cell"/>
    <text x="410" y="55" fill="white" font-size="16" font-weight="600" text-anchor="middle">100%</text>
    
    <rect x="520" y="30" width="140" height="40" fill="#484f58" rx="4" class="cell"/>
    <rect x="700" y="30" width="140" height="40" fill="#484f58" rx="4" class="cell"/>
    <rect x="880" y="30" width="140" height="40" fill="#484f58" rx="4" class="cell"/>
    <rect x="1060" y="30" width="140" height="40" fill="#484f58" rx="4" class="cell"/>
    <rect x="1240" y="30" width="140" height="40" fill="#484f58" rx="4" class="cell"/>
  </g>
  
  <!-- Row 4: Mock APIs -->
  <g transform="translate(40, 350)">
    <text x="0" y="50" fill="#c9d1d9" font-size="13" font-weight="600">Mock APIs</text>
    
    <rect x="160" y="30" width="140" height="40" fill="#484f58" rx="4" class="cell"/>
    
    <rect x="340" y="30" width="140" height="40" fill="#d29922" rx="4" class="cell"/>
    <text x="410" y="55" fill="white" font-size="16" font-weight="600" text-anchor="middle">60%</text>
    
    <rect x="520" y="30" width="140" height="40" fill="#484f58" rx="4" class="cell"/>
    <rect x="700" y="30" width="140" height="40" fill="#484f58" rx="4" class="cell"/>
    <rect x="880" y="30" width="140" height="40" fill="#484f58" rx="4" class="cell"/>
    <rect x="1060" y="30" width="140" height="40" fill="#484f58" rx="4" class="cell"/>
    <rect x="1240" y="30" width="140" height="40" fill="#484f58" rx="4" class="cell"/>
  </g>
  
  <!-- Row 5: Components -->
  <g transform="translate(40, 410)">
    <text x="0" y="50" fill="#c9d1d9" font-size="13" font-weight="600">Small Components</text>
    
    <rect x="160" y="30" width="140" height="40" fill="#484f58" rx="4" class="cell"/>
    <rect x="340" y="30" width="140" height="40" fill="#484f58" rx="4" class="cell"/>
    
    <rect x="520" y="30" width="140" height="40" fill="#f85149" rx="4" class="cell"/>
    <text x="590" y="55" fill="white" font-size="16" font-weight="600" text-anchor="middle">35%</text>
    
    <rect x="700" y="30" width="140" height="40" fill="#484f58" rx="4" class="cell"/>
    <rect x="880" y="30" width="140" height="40" fill="#484f58" rx="4" class="cell"/>
    <rect x="1060" y="30" width="140" height="40" fill="#484f58" rx="4" class="cell"/>
    <rect x="1240" y="30" width="140" height="40" fill="#484f58" rx="4" class="cell"/>
  </g>
  
  <!-- Row 6: Reusability -->
  <g transform="translate(40, 470)">
    <text x="0" y="50" fill="#c9d1d9" font-size="13" font-weight="600">Reusable Code</text>
    
    <rect x="160" y="30" width="140" height="40" fill="#484f58" rx="4" class="cell"/>
    <rect x="340" y="30" width="140" height="40" fill="#484f58" rx="4" class="cell"/>
    
    <rect x="520" y="30" width="140" height="40" fill="#d29922" rx="4" class="cell"/>
    <text x="590" y="55" fill="white" font-size="16" font-weight="600" text-anchor="middle">72%</text>
    
    <rect x="700" y="30" width="140" height="40" fill="#484f58" rx="4" class="cell"/>
    <rect x="880" y="30" width="140" height="40" fill="#484f58" rx="4" class="cell"/>
    <rect x="1060" y="30" width="140" height="40" fill="#484f58" rx="4" class="cell"/>
    <rect x="1240" y="30" width="140" height="40" fill="#484f58" rx="4" class="cell"/>
  </g>
  
  <!-- Row 7: Re-renders -->
  <g transform="translate(40, 530)">
    <text x="0" y="50" fill="#c9d1d9" font-size="13" font-weight="600">Avoid Re-renders</text>
    
    <rect x="160" y="30" width="140" height="40" fill="#484f58" rx="4" class="cell"/>
    <rect x="340" y="30" width="140" height="40" fill="#484f58" rx="4" class="cell"/>
    <rect x="520" y="30" width="140" height="40" fill="#484f58" rx="4" class="cell"/>
    
    <rect x="700" y="30" width="140" height="40" fill="#f85149" rx="4" class="cell"/>
    <text x="770" y="55" fill="white" font-size="16" font-weight="600" text-anchor="middle">25%</text>
    
    <rect x="880" y="30" width="140" height="40" fill="#484f58" rx="4" class="cell"/>
    <rect x="1060" y="30" width="140" height="40" fill="#484f58" rx="4" class="cell"/>
    <rect x="1240" y="30" width="140" height="40" fill="#484f58" rx="4" class="cell"/>
  </g>
  
  <!-- Row 8: Lazy Loading -->
  <g transform="translate(40, 590)">
    <text x="0" y="50" fill="#c9d1d9" font-size="13" font-weight="600">Lazy Loading</text>
    
    <rect x="160" y="30" width="140" height="40" fill="#484f58" rx="4" class="cell"/>
    <rect x="340" y="30" width="140" height="40" fill="#484f58" rx="4" class="cell"/>
    <rect x="520" y="30" width="140" height="40" fill="#484f58" rx="4" class="cell"/>
    
    <rect x="700" y="30" width="140" height="40" fill="#f85149" rx="4" class="cell"/>
    <text x="770" y="55" fill="white" font-size="16" font-weight="600" text-anchor="middle">10%</text>
    
    <rect x="880" y="30" width="140" height="40" fill="#484f58" rx="4" class="cell"/>
    <rect x="1060" y="30" width="140" height="40" fill="#484f58" rx="4" class="cell"/>
    <rect x="1240" y="30" width="140" height="40" fill="#484f58" rx="4" class="cell"/>
  </g>
  
  <!-- Row 9: Unit Tests -->
  <g transform="translate(40, 650)">
    <text x="0" y="50" fill="#c9d1d9" font-size="13" font-weight="600">Unit Tests</text>
    
    <rect x="160" y="30" width="140" height="40" fill="#484f58" rx="4" class="cell"/>
    <rect x="340" y="30" width="140" height="40" fill="#484f58" rx="4" class="cell"/>
    <rect x="520" y="30" width="140" height="40" fill="#484f58" rx="4" class="cell"/>
    <rect x="700" y="30" width="140" height="40" fill="#484f58" rx="4" class="cell"/>
    
    <rect x="880" y="30" width="140" height="40" fill="#238636" rx="4" class="cell"/>
    <text x="950" y="55" fill="white" font-size="16" font-weight="600" text-anchor="middle">95%</text>
    
    <rect x="1060" y="30" width="140" height="40" fill="#484f58" rx="4" class="cell"/>
    <rect x="1240" y="30" width="140" height="40" fill="#484f58" rx="4" class="cell"/>
  </g>
  
  <!-- Row 10: Error Handling -->
  <g transform="translate(40, 710)">
    <text x="0" y="50" fill="#c9d1d9" font-size="13" font-weight="600">Error Handling</text>
    
    <rect x="160" y="30" width="140" height="40" fill="#484f58" rx="4" class="cell"/>
    <rect x="340" y="30" width="140" height="40" fill="#484f58" rx="4" class="cell"/>
    <rect x="520" y="30" width="140" height="40" fill="#484f58" rx="4" class="cell"/>
    <rect x="700" y="30" width="140" height="40" fill="#484f58" rx="4" class="cell"/>
    <rect x="880" y="30" width="140" height="40" fill="#484f58" rx="4" class="cell"/>
    
    <rect x="1060" y="30" width="140" height="40" fill="#d29922" rx="4" class="cell"/>
    <text x="1130" y="55" fill="white" font-size="16" font-weight="600" text-anchor="middle">68%</text>
    
    <rect x="1240" y="30" width="140" height="40" fill="#484f58" rx="4" class="cell"/>
  </g>
  
  <!-- Row 11: Code Review -->
  <g transform="translate(40, 770)">
    <text x="0" y="50" fill="#c9d1d9" font-size="13" font-weight="600">Reviewed</text>
    
    <rect x="160" y="30" width="140" height="40" fill="#484f58" rx="4" class="cell"/>
    <rect x="340" y="30" width="140" height="40" fill="#484f58" rx="4" class="cell"/>
    <rect x="520" y="30" width="140" height="40" fill="#484f58" rx="4" class="cell"/>
    <rect x="700" y="30" width="140" height="40" fill="#484f58" rx="4" class="cell"/>
    <rect x="880" y="30" width="140" height="40" fill="#484f58" rx="4" class="cell"/>
    <rect x="1060" y="30" width="140" height="40" fill="#484f58" rx="4" class="cell"/>
    
    <rect x="1240" y="30" width="140" height="40" fill="#484f58" rx="4" class="cell"/>
    <text x="1310" y="55" fill="#8b949e" font-size="16" font-weight="600" text-anchor="middle">0%</text>
  </g>
  
  <!-- Bottom Summary -->
  <g transform="translate(40, 830)">
    <rect width="160" height="30" fill="#238636" rx="4"/>
    <text x="80" y="21" fill="white" font-size="13" font-weight="600" text-anchor="middle">Branch: 100%</text>
    
    <rect x="180" width="160" height="30" fill="#d29922" rx="4"/>
    <text x="260" y="21" fill="white" font-size="13" font-weight="600" text-anchor="middle">API: 80%</text>
    
    <rect x="360" width="160" height="30" fill="#f85149" rx="4"/>
    <text x="440" y="21" fill="white" font-size="13" font-weight="600" text-anchor="middle">Code: 54%</text>
    
    <rect x="540" width="160" height="30" fill="#f85149" rx="4"/>
    <text x="620" y="21" fill="white" font-size="13" font-weight="600" text-anchor="middle">Perf: 18%</text>
    
    <rect x="720" width="160" height="30" fill="#238636" rx="4"/>
    <text x="800" y="21" fill="white" font-size="13" font-weight="600" text-anchor="middle">Testing: 95%</text>
    
    <rect x="900" width="160" height="30" fill="#d29922" rx="4"/>
    <text x="980" y="21" fill="white" font-size="13" font-weight="600" text-anchor="middle">Stability: 68%</text>
    
    <rect x="1080" width="160" height="30" fill="#484f58" rx="4"/>
    <text x="1160" y="21" fill="#c9d1d9" font-size="13" font-weight="600" text-anchor="middle">Review: 0%</text>
  </g>
</svg>